<svg viewBox="0 0 120 120" xmlns="http://www.w3.org/2000/svg">
  <path d="M30 26L42 50H78L90 26L82 56C90 62 95 72 95 84C95 100 80 108 60 108C40 108 25 100 25 84C25 72 30 62 38 56L30 26Z" fill="#FFB199"/>
  <ellipse cx="42" cy="78" rx="6" ry="8" fill="#4A3B35"/>
  <ellipse cx="78" cy="78" rx="6" ry="8" fill="#4A3B35"/>
  <path d="M55 90C55 90 57 94 60 94C63 94 65 90 65 90" stroke="#4A3B35" stroke-width="3.5" stroke-linecap="round" fill="none"/>
  <path d="M60 86L60 90" stroke="#4A3B35" stroke-width="0" />
  <path d="M44 92C40 94 33 94 28 92" stroke="#4A3B35" stroke-width="3" stroke-linecap="round" fill="none" opacity="0.7"/>
  <path d="M76 92C80 94 87 94 92 92" stroke="#4A3B35" stroke-width="3" stroke-linecap="round" fill="none" opacity="0.7"/>
  <ellipse cx="60" cy="89" rx="3.5" ry="2.5" fill="#FB7C57"/>
</svg>
