<svg viewBox="0 0 120 120" xmlns="http://www.w3.org/2000/svg">
  <circle cx="60" cy="60" r="56" fill="#FFC93C"/>
  <path d="M30 50C30 50 36 40 44 40C52 40 56 50 56 50" stroke="#4A3B35" stroke-width="5" stroke-linecap="round" fill="none"/>
  <path d="M64 50C64 50 68 40 76 40C84 40 90 50 90 50" stroke="#4A3B35" stroke-width="5" stroke-linecap="round" fill="none"/>
  <path d="M28 68C28 68 40 92 60 92C80 92 92 68 92 68C92 68 90 84 60 84C30 84 28 68 28 68Z" fill="#4A3B35"/>
  <path d="M40 70H80V74C80 78 76 81 60 81C44 81 40 78 40 74V70Z" fill="#FB7C57"/>
</svg>
