<svg viewBox="0 0 120 120" xmlns="http://www.w3.org/2000/svg">
  <rect x="4" y="4" width="112" height="112" rx="28" fill="#FDE6EE"/>
  <rect x="26" y="58" width="20" height="38" rx="8" fill="#FB7C57"/>
  <path d="M50 58V92C50 95.3 52.7 98 56 98H80C85 98 89.2 94.4 89.9 89.5L94.7 60.5C95.6 54.8 91.1 49.6 85.3 49.6H68L70.7 35.2C71.6 30.4 68.4 25.9 63.6 25.4C60.3 25 57.1 26.9 56 30L50 46" fill="#FFB199"/>
  <path d="M50 58V92C50 95.3 52.7 98 56 98H80C85 98 89.2 94.4 89.9 89.5L94.7 60.5C95.6 54.8 91.1 49.6 85.3 49.6H68L70.7 35.2C71.6 30.4 68.4 25.9 63.6 25.4C60.3 25 57.1 26.9 56 30L50 46" fill="none" stroke="#FB7C57" stroke-width="2.5" stroke-linejoin="round"/>
</svg>
