<svg viewBox="0 0 120 120" xmlns="http://www.w3.org/2000/svg">
  <rect x="4" y="4" width="112" height="112" rx="28" fill="#FFF1E6"/>
  <path d="M48 96V58C48 54 51 51 55 51C59 51 62 54 62 58V72" stroke="none" fill="#FFB199"/>
  <path d="M40 98V52C40 48.5 42.8 46 46 46C49.2 46 52 48.5 52 52V70" fill="#FFB199"/>
  <path d="M52 70V40C52 36.5 54.8 34 58 34C61.2 34 64 36.5 64 40V70" fill="#FFB199"/>
  <path d="M64 70V36C64 32.5 66.8 30 70 30C73.2 30 76 32.5 76 36V72" fill="#FFB199"/>
  <path d="M76 72V44C76 40.5 78.8 38 82 38C85.2 38 88 40.5 88 44V80C88 91 80 99 68 99H58C50 99 44 95 40 88L30 72C28 68.5 29.5 64.5 33 63C35.5 62 38 63 40 65L46 73" fill="#FFB199"/>
  <path d="M40 98V52C40 48.5 42.8 46 46 46C49.2 46 52 48.5 52 52V70M52 70V40C52 36.5 54.8 34 58 34C61.2 34 64 36.5 64 40V70M64 70V36C64 32.5 66.8 30 70 30C73.2 30 76 32.5 76 36V72M76 72V44C76 40.5 78.8 38 82 38C85.2 38 88 40.5 88 44V80C88 91 80 99 68 99H58C50 99 44 95 40 88L30 72C28 68.5 29.5 64.5 33 63C35.5 62 38 63 40 65L46 73" fill="none" stroke="#FB7C57" stroke-width="2" stroke-linejoin="round"/>
</svg>
